<svg width="86" height="114" viewBox="0 0 86 114" fill="none" xmlns="http://www.w3.org/2000/svg">
<path fill-rule="evenodd" clip-rule="evenodd" d="M36.3754 66.0958C38.7936 66.6593 41.463 67.0581 43.9268 66.7352C46.8529 66.3516 48.9505 64.7836 50.8645 62.9441C53.323 60.5806 55.4994 57.7783 58.1022 55.5011C59.0678 54.6549 59.8945 54.6317 60.253 54.616C61.1588 54.5765 61.8642 54.8637 62.4284 55.2887C63.0979 55.7909 63.8918 56.6765 63.7696 58.2614C63.7518 58.488 63.7044 58.8203 63.5575 59.2229C63.4495 59.5178 62.9686 60.348 62.816 60.7197C62.4425 61.6365 62.0441 62.5374 61.6349 63.4377C60.2732 66.4342 59.0072 68.909 58.6503 72.2365C58.165 76.7534 58.5356 79.9461 60.2653 82.3664C61.9378 84.7068 64.734 86.2658 68.6196 87.7707C68.9973 87.9016 69.3643 88.0415 69.7199 88.1918C71.4042 88.9003 72.2128 90.8246 71.5408 92.5242C70.8694 94.2227 68.9631 95.0732 67.2495 94.4401C66.8919 94.3078 66.5411 94.175 66.1972 94.0387C60.818 92.205 52.8102 92.8526 47.3806 94.4364C45.7067 94.925 42.3087 97.1145 39.6025 98.1653C37.6057 98.9401 35.7968 99.1341 34.578 98.8302C33.7606 98.6277 33.2177 98.2293 32.8248 97.8138C32.2539 97.2104 31.927 96.4809 31.8708 95.6187C31.8412 95.1475 31.8984 94.5786 32.1461 93.9644C32.2656 93.669 32.6902 92.996 32.8861 92.6936C33.2408 91.4978 33.5146 90.2836 33.9067 89.0991C34.8425 86.273 34.607 83.9518 34.4588 80.9899C34.3209 78.2184 33.6289 76.088 32.1024 73.7615C31.8679 73.5149 29.9764 71.5227 29.3864 70.6978C28.5257 69.4911 28.4717 68.3618 28.5397 67.8158C28.6543 66.8892 29.0168 66.2482 29.416 65.7761C30.0057 65.0798 30.7659 64.6479 31.7099 64.5116C32.2954 64.4261 33.0605 64.4687 33.9109 64.7964C34.5688 65.0482 36.1528 65.9672 36.3754 66.0958ZM52.0846 70.6054C52.0396 70.9041 52.0007 71.2083 51.9672 71.5191C51.2565 78.1346 52.2628 82.7298 54.7975 86.2746L54.8834 86.3921C51.5176 86.6194 48.2398 87.1845 45.4984 87.9841C44.3697 88.3133 42.5139 89.3114 40.5637 90.3047C41.4825 87.0203 41.3485 84.1954 41.1727 80.655C41.0371 77.9521 40.5438 75.6665 39.567 73.4344C41.328 73.6058 43.1027 73.6215 44.8004 73.3991C47.6273 73.0283 49.991 72.0131 52.0846 70.6054Z" fill="#FB3EDE"/>
<path fill-rule="evenodd" clip-rule="evenodd" d="M11.4827 18.9342C13.4461 18.8696 15.5678 18.6277 17.3844 17.8763C19.5421 16.9838 20.8239 15.3559 21.9098 13.5582C23.3046 11.2485 24.3938 8.66129 25.9165 6.38796C26.4812 5.54349 27.1082 5.35646 27.3789 5.27104C28.063 5.05538 28.6609 5.13038 29.1791 5.33955C29.7936 5.58621 30.5817 6.10045 30.8129 7.33665C30.8457 7.51349 30.8775 7.77712 30.8477 8.11483C30.8256 8.36232 30.6282 9.09527 30.5877 9.41058C30.49 10.1877 30.3701 10.9578 30.2417 11.7296C29.8148 14.2984 29.3541 16.4489 29.7629 19.0649C30.3171 22.6161 31.2542 24.9801 33.0718 26.4754C34.8292 27.9214 37.2854 28.5402 40.563 28.8944C40.8784 28.9171 41.1876 28.9489 41.4901 28.9909C42.9223 29.1874 43.9344 30.4923 43.7689 31.9288C43.6037 33.3643 42.3211 34.4047 40.8819 34.2718C40.5815 34.2439 40.2862 34.2143 39.9955 34.1805C35.5091 33.881 29.5222 36.0159 25.6972 38.3383C24.5182 39.0545 22.3698 41.4236 20.5169 42.7809C19.1497 43.7819 17.807 44.3007 16.8134 44.3181C16.1472 44.3307 15.6508 44.1374 15.2654 43.9004C14.7055 43.5562 14.3063 43.0657 14.0867 42.4182C13.9677 42.0642 13.8948 41.6178 13.9583 41.0977C13.9892 40.8474 14.1758 40.2461 14.2636 39.975C14.2897 38.9885 14.2503 38.0045 14.3074 37.019C14.4437 34.6677 13.7883 32.942 13.0685 30.7089C12.3955 28.6192 11.4303 27.1328 9.78731 25.6675C9.55754 25.5271 7.70405 24.392 7.08426 23.8824C6.17935 23.1366 5.90677 22.2846 5.84694 21.8535C5.74471 21.1219 5.89043 20.5578 6.09886 20.1153C6.40692 19.4623 6.89935 18.9766 7.59289 18.6791C8.02279 18.4938 8.61625 18.3697 9.33325 18.4459C9.88757 18.5037 11.2863 18.8815 11.4827 18.9342ZM24.4113 19.1632C24.4381 19.4006 24.4707 19.6411 24.5087 19.8854C25.3205 25.0866 27.0307 28.3921 29.6937 30.5819L29.7834 30.6541C27.2578 31.5172 24.8686 32.6204 22.9374 33.7929C22.1423 34.2756 20.9285 35.4184 19.6416 36.5769C19.671 33.8788 18.9901 31.7475 18.1307 29.0778C17.4734 27.0401 16.6283 25.3944 15.4248 23.8888C16.8056 23.6591 18.1651 23.3076 19.4169 22.7899C21.5013 21.9276 23.0997 20.6677 24.4113 19.1632Z" fill="#FB3EDE"/>
</svg>
