<svg width="60" height="60" viewBox="0 0 60 60" fill="none" xmlns="http://www.w3.org/2000/svg">
<path fill-rule="evenodd" clip-rule="evenodd" d="M26.6981 22.5428C21.1285 17.9645 16.6156 12.5123 13.2243 6.16017C12.546 4.89495 10.9678 4.41233 9.68953 5.09059C8.42431 5.76885 7.94161 7.34714 8.61987 8.6254C12.3503 15.5776 17.2808 21.5515 23.3852 26.5732C24.4939 27.4863 26.1503 27.3297 27.0634 26.221C27.9764 25.0993 27.8068 23.4558 26.6981 22.5428Z" fill="#FB3EDE"/>
<path fill-rule="evenodd" clip-rule="evenodd" d="M23.7318 4.71141C24.0188 9.98098 24.2797 15.2505 24.6058 20.5201C24.6971 21.9549 25.9362 23.0505 27.371 22.9592C28.8058 22.8679 29.9014 21.6288 29.8101 20.194C29.484 14.9375 29.2231 9.68101 28.9362 4.41144C28.8579 2.98057 27.6188 1.87839 26.184 1.95926C24.7492 2.04013 23.6405 3.27272 23.7318 4.71141Z" fill="#FB3EDE"/>
<path fill-rule="evenodd" clip-rule="evenodd" d="M43.0961 5.7807C39.757 10.8155 35.9746 15.4589 32.1659 20.1546C31.2528 21.2763 31.4223 22.9198 32.544 23.8198C33.6658 24.7329 35.3093 24.5633 36.2093 23.4415C40.1224 18.6285 44.0093 13.8415 47.4528 8.66325C48.2484 7.46325 47.9092 5.84592 46.7092 5.05026C45.5223 4.25461 43.8918 4.5807 43.0961 5.7807Z" fill="#FB3EDE"/>
<path fill-rule="evenodd" clip-rule="evenodd" d="M56.0348 24.4984C46.9826 24.9027 37.3696 24.9158 28.3174 24.3419C26.8826 24.2636 25.6435 25.3462 25.5522 26.7941C25.4609 28.2288 26.5565 29.468 27.9913 29.5593C37.2261 30.1332 47.0349 30.1201 56.2696 29.7158C57.7044 29.6506 58.8261 28.4245 58.7608 26.9897C58.6956 25.555 57.4696 24.4332 56.0348 24.4984Z" fill="#FB3EDE"/>
<path fill-rule="evenodd" clip-rule="evenodd" d="M23.382 26.1544C28.9646 32.9892 34.7429 39.6936 39.9212 46.8414C40.769 48.0023 42.3995 48.2631 43.5734 47.4152C44.7343 46.5674 44.9951 44.9369 44.1473 43.7761C38.9038 36.55 33.0604 29.7674 27.4125 22.8543C26.4995 21.7457 24.8559 21.5761 23.7473 22.4892C22.6255 23.4022 22.469 25.0457 23.382 26.1544Z" fill="#FB3EDE"/>
<path fill-rule="evenodd" clip-rule="evenodd" d="M25.0727 28.1374C26.5336 35.2591 26.9379 42.0678 27.0423 49.2809C27.0553 50.7156 28.2423 51.8634 29.6771 51.8504C31.1249 51.8243 32.2727 50.6504 32.2466 49.2025C32.1423 41.6503 31.7119 34.5417 30.1858 27.0808C29.8858 25.6721 28.5162 24.759 27.0945 25.059C25.6858 25.346 24.7727 26.7287 25.0727 28.1374Z" fill="#FB3EDE"/>
<path fill-rule="evenodd" clip-rule="evenodd" d="M25.3121 27.5638C21.086 36.016 18.9078 45.4073 14.3817 53.6769C13.6904 54.9291 14.1598 56.5203 15.4251 57.2116C16.6903 57.9029 18.2686 57.4333 18.9599 56.1811C23.5121 47.8594 25.7164 38.416 29.9816 29.8986C30.6207 28.6073 30.099 27.0421 28.8207 26.3899C27.5294 25.7508 25.9643 26.2725 25.3121 27.5638Z" fill="#FB3EDE"/>
<path fill-rule="evenodd" clip-rule="evenodd" d="M27.634 25.6466C19.221 27.1335 10.821 27.8118 2.35575 28.8161C0.920972 28.9857 -0.0964193 30.277 0.0731459 31.7118C0.242711 33.1466 1.53414 34.164 2.96892 33.9944C11.5254 32.9901 20.0298 32.2857 28.5472 30.7857C29.9559 30.5248 30.908 29.1683 30.6602 27.7596C30.3993 26.3379 29.0558 25.3857 27.634 25.6466Z" fill="#FB3EDE"/>
<path fill-rule="evenodd" clip-rule="evenodd" d="M33.4845 21.6822C31.7497 21.6039 30.1062 21.4865 28.4105 21.2387C26.9757 21.03 25.6583 22.0213 25.4496 23.443C25.2409 24.8648 26.2322 26.1952 27.6539 26.4039C29.5322 26.6778 31.3453 26.8083 33.2496 26.8865C34.6844 26.9518 35.9104 25.843 35.9626 24.3952C36.0278 22.9604 34.9192 21.7474 33.4845 21.6822Z" fill="#FB3EDE"/>
</svg>
